<svg width="19" height="21" viewBox="0 0 19 21" fill="none" xmlns="http://www.w3.org/2000/svg">
<path d="M17.8179 5.44886L17.8179 5.44881L17.8146 5.44532L12.6409 0.0180035C12.5188 -0.110622 12.3484 -0.191016 12.167 -0.191016H3.97488C2.38074 -0.191016 1.06545 1.11859 1.06545 2.71328V18.2046C1.06545 19.7994 2.38074 21.109 3.97488 21.109H15.0937C16.6878 21.109 18.0031 19.7994 18.0031 18.2046V5.90386C18.0031 5.72647 17.9222 5.56559 17.8179 5.44886ZM12.8292 4.17928V2.12451L15.7937 5.23652H13.8915C13.304 5.23652 12.8292 4.76515 12.8292 4.17928ZM15.0937 19.7945H3.97488C3.10839 19.7945 2.37995 19.0746 2.37995 18.2046V2.71328C2.37995 1.84793 3.10382 1.12348 3.97488 1.12348H11.5147V4.17928C11.5147 5.49512 12.5766 6.55101 13.8915 6.55101H16.6886V18.2046C16.6886 19.0749 15.965 19.7945 15.0937 19.7945Z" fill="white" stroke="white" stroke-width="0.3"/>
<path d="M13.7087 16.2948H5.35947C4.99772 16.2948 4.70222 16.5901 4.70222 16.9521C4.70222 17.3139 4.99769 17.6093 5.35947 17.6093H13.7139C14.0756 17.6093 14.3711 17.3139 14.3711 16.9521C14.3711 16.5891 14.0746 16.2948 13.7087 16.2948Z" fill="white" stroke="white" stroke-width="0.3"/>
<path d="M9.0535 14.7257L9.05349 14.7257L9.05465 14.7269C9.17743 14.856 9.34777 14.9359 9.5336 14.9359C9.71955 14.9359 9.88995 14.8561 10.0126 14.7268L10.0127 14.7268L10.0136 14.7258L12.9852 11.5363C12.9853 11.5361 12.9855 11.5359 12.9857 11.5357C13.2365 11.271 13.2156 10.8514 12.9536 10.6083C12.6888 10.3576 12.269 10.3784 12.026 10.641C12.0259 10.6411 12.0258 10.6412 12.0257 10.6413L10.1909 12.6093V7.4511C10.1909 7.08912 9.89535 6.79385 9.5336 6.79385C9.17185 6.79385 8.87635 7.08912 8.87635 7.4511V12.6086L7.04631 10.6409L7.04632 10.6409L7.04521 10.6398C6.79808 10.3797 6.3836 10.3566 6.11794 10.609C5.85807 10.856 5.8348 11.27 6.08662 11.5357L9.0535 14.7257Z" fill="white" stroke="white" stroke-width="0.3"/>
</svg>
