<svg width="25" height="27" viewBox="0 0 25 27" fill="none" xmlns="http://www.w3.org/2000/svg">
<path d="M24.2103 26.1125L22.1582 6.57057C22.1151 6.16146 21.7703 5.85083 21.3589 5.85083H17.5019V4.97144C17.5019 2.23029 15.2716 0 12.5305 0C9.7891 0 7.55881 2.23029 7.55881 4.97144V5.85083H3.70179C3.29042 5.85083 2.94559 6.16146 2.90254 6.57057L0.850432 26.1125C0.826743 26.3389 0.900283 26.5649 1.05251 26.7342C1.20495 26.9033 1.42206 26.9999 1.64969 26.9999H23.4108C23.6386 26.9999 23.8558 26.9033 24.008 26.7342C24.1606 26.5649 24.234 26.3389 24.2103 26.1125ZM9.16597 4.97144C9.16597 3.11647 10.6753 1.60716 12.5305 1.60716C14.3854 1.60716 15.8947 3.11647 15.8947 4.97144V5.85083H9.16597V4.97144ZM2.54205 25.3928L4.42545 7.45798H7.55881V9.22891C7.55881 9.67262 7.91868 10.0325 8.36239 10.0325C8.8061 10.0325 9.16597 9.67262 9.16597 9.22891V7.45798H15.8947V9.22891C15.8947 9.67262 16.2546 10.0325 16.6983 10.0325C17.142 10.0325 17.5019 9.67262 17.5019 9.22891V7.45798H20.6353L22.5187 25.3928H2.54205Z" fill="white"/>
</svg>
