<svg width="12" height="14" viewBox="0 0 12 14" fill="none" xmlns="http://www.w3.org/2000/svg">
<path d="M5.64134 0.953125L4.88652 1.72336L4.79253 1.81097L4.79548 2.89517L4.694 2.92755L4.61072 2.95693L4.52263 2.98441L4.45596 3.0138L4.37884 3.04454L4.29396 3.07692L4.21818 3.11392L4.1408 3.14766L4.07118 3.18167L4.01201 3.20942L3.93917 3.24941L3.88161 3.28342L3.82243 3.31716L3.74987 3.35715L3.69203 3.38953L3.60875 3.44041L3.51772 3.50053L3.41945 3.56828L3.34367 3.61888L3.25718 3.68527L3.20256 3.72826L3.13294 3.78376L3.06921 3.83464L3.00093 3.89014L2.93881 3.94102L2.89035 3.99026L2.83117 4.04549L2.72353 4.14888L2.67667 4.19486L2.63865 4.23513L2.58724 4.28573L2.52512 4.35375L2.46594 4.41823L2.42819 4.46911L2.38106 4.52135L2.33876 4.57848L2.29618 4.63398L2.25521 4.68922L2.21291 4.74173L2.17488 4.79396L2.13552 4.84348L2.10527 4.88946L2.07046 4.9466L2.03404 5.00672L2.00218 5.04971L1.97192 5.09596L1.92479 5.17296L1.90364 5.21758L1.87793 5.26383L1.84152 5.32396L1.81287 5.36994L1.796 5.41619L1.76119 5.47632L1.72799 5.53781L1.69157 5.61344L1.66426 5.68418L1.634 5.75955L1.60348 5.82294L1.57938 5.87817L1.55662 5.94292L1.52181 6.02291L1.4945 6.10617L1.45514 6.22479L1.43372 6.29716L1.40962 6.37878L1.38846 6.45415L1.37026 6.52978L1.32313 6.739L1.31108 6.80376L1.29127 6.87939L1.27761 6.97163L1.26851 7.03339L1.25485 7.13024L1.24146 7.23662L1.22781 7.40585L1.2171 7.52448L1.21254 7.61535L1.21094 7.72472L1.21254 7.99108L1.21549 8.07896L1.22459 8.2052L1.23236 8.30831L1.23986 8.38232L1.24735 8.46095L1.25485 8.52407L1.26851 8.6027L1.27922 8.67806L1.28993 8.74581L1.30358 8.81355L1.31563 8.87205L1.33384 8.95367L1.35044 9.02468L1.3657 9.09705L1.3898 9.17541L1.40962 9.25567L1.42916 9.32341L1.44737 9.38191L1.46719 9.44966L1.48995 9.51278L1.51271 9.58052L1.53841 9.64664L1.56117 9.70513L1.58232 9.75601L1.61124 9.82838L1.63989 9.89939L1.67176 9.9655L1.69907 10.0316L1.72638 10.0858L1.75369 10.135L1.78556 10.2057L1.81421 10.2596L1.84313 10.3151L1.87499 10.3706L1.89454 10.406L1.91435 10.4397L1.943 10.4876L1.96897 10.5322L1.99307 10.5709L2.02199 10.6109L2.04609 10.6538L2.08411 10.7123L2.11732 10.7616L2.15373 10.8111L2.17944 10.8511L2.20835 10.8895L2.24477 10.9373L2.27503 10.9773L2.31733 11.0296L2.37062 11.0943L2.41453 11.1528L2.46594 11.21L2.50396 11.2576L2.54466 11.2992L2.5934 11.3514L2.63731 11.401L2.68122 11.4456L2.71443 11.478L2.75539 11.5163L2.79797 11.5596L2.83438 11.5933L2.87375 11.6303L2.90561 11.6611L2.94792 11.6981L2.98728 11.7351L3.02235 11.7595L3.05395 11.7906L3.08742 11.8167L3.11473 11.8365L3.14499 11.8613L3.18141 11.8907L3.21621 11.9182L3.25424 11.9459L3.29494 11.9767L3.33135 12.0044L3.35706 12.0216L3.37848 12.0384L3.40258 12.0553L3.42855 12.0738L3.45104 12.0893L3.47086 12.0999H2.05225L1.21254 12.9531H9.65163L10.4884 12.0999L6.08985 12.0985L5.99452 12.0969L5.87912 12.0847L5.71257 12.0708L5.55941 12.0401L5.44132 12.0183L5.31842 11.9892L5.21239 11.966L5.09564 11.9367L5.01826 11.9135L4.89562 11.8689L4.79093 11.8306L4.7015 11.7982L4.61822 11.7628L4.53173 11.7182L4.45301 11.6796L4.35153 11.6319L4.25139 11.5764L4.16195 11.5226L4.07573 11.4701L4.0104 11.4271L3.92552 11.3762L3.84813 11.3177L3.78146 11.2744L3.7164 11.2252L3.64223 11.1621L3.56645 11.1006L3.48906 11.0312L3.41489 10.9665L3.3359 10.8881L3.26334 10.8157L3.21327 10.7662L3.15409 10.6938L3.10723 10.6432L3.06011 10.5924L3.00093 10.5184L2.93587 10.4367C2.93587 10.4367 2.8783 10.3583 2.8783 10.3521C2.8783 10.346 2.82207 10.2797 2.82207 10.2797L2.75861 10.1826L2.70693 10.1056L2.65552 10.024L2.60705 9.93939L2.56609 9.86837L2.53128 9.79764L2.4796 9.70051L2.44024 9.60827L2.40221 9.51876L2.35991 9.42653L2.33099 9.35715L2.30689 9.29403L2.28119 9.21404L2.24611 9.10304L2.20996 8.98605L2.17355 8.85518L2.15079 8.74281L2.12642 8.61957L2.10366 8.51482L2.08866 8.38994L2.07635 8.27295L2.0643 8.14045L2.05841 8.06345L2.05225 7.97421V7.89259L2.05386 7.81559L2.05841 7.7356L2.06135 7.60773L2.06724 7.51223L2.0718 7.41211L2.07956 7.34273L2.09161 7.24723L2.10527 7.15963L2.11598 7.07012L2.13097 6.99475L2.15079 6.90089L2.16578 6.82389L2.17944 6.7654L2.19925 6.6884L2.2204 6.62201L2.24477 6.52978L2.26887 6.4634L2.30073 6.37116L2.33099 6.28492L2.36151 6.20928L2.39472 6.11378L2.43729 6.02155L2.46755 5.96605L2.50236 5.89068L2.54172 5.81042L2.57358 5.7503L2.6175 5.67194L2.66757 5.59331L2.70104 5.53182L2.7404 5.47333L2.79797 5.38844L2.84643 5.3177L2.89035 5.25159L2.93587 5.18983L2.97523 5.13433L3.01164 5.0927L3.05556 5.04345L3.09037 4.99883L3.12384 4.96183L3.1648 4.92048L3.19961 4.87722L3.25102 4.8296L3.29654 4.78172L3.38758 4.69248L3.41945 4.65847L3.46175 4.62011L3.50433 4.58148L3.54208 4.54611L3.5876 4.50611L3.64062 4.46448L3.69069 4.42612L3.74076 4.38586L3.79217 4.35375L3.85429 4.30587L3.91347 4.26288L3.9772 4.22125L4.02245 4.18724L4.08323 4.15187L4.13785 4.11786L4.17855 4.09039L4.23023 4.06726L4.26959 4.0425L4.32261 4.01475L4.38179 3.98401L4.44096 3.95625L4.47577 3.93476L4.53173 3.91327L4.5802 3.8915L4.63643 3.86538L4.68195 3.84552L4.7272 3.82702L4.77138 3.81151L4.79548 3.80063V7.81559L5.63974 6.96102L5.64134 3.57889L5.65179 3.57427L5.6882 3.56828L5.73078 3.56365L5.78835 3.5544L5.84431 3.54978L5.87992 3.54842L5.88072 3.54896L5.89518 3.55059L5.9656 3.5427L6.04138 3.53808L6.13296 3.53509L6.41571 3.53345L6.5188 3.5389L6.60663 3.54515L6.67277 3.55114L6.73569 3.55821L6.8037 3.56665L6.85458 3.57427L6.9001 3.58052L6.90144 7.81723L7.7481 6.96238V3.80389L7.76095 3.8077L7.78961 3.81995L7.82977 3.83627L7.88359 3.85613L7.92081 3.87463L7.97543 3.89857L8.03595 3.92633L8.09218 3.95408L8.14734 3.98237L8.20812 4.01257L8.27533 4.04876L8.32326 4.07406L8.36556 4.09719L8.40118 4.12195L8.44295 4.14643L8.47695 4.16493L8.52087 4.19486L8.55889 4.22044L8.60521 4.249L8.64538 4.27648L8.68554 4.30587L8.72624 4.33579L8.7664 4.36436L8.81353 4.40055L8.85664 4.43456L8.89011 4.46149L8.92572 4.4906L8.96428 4.52135L9.00605 4.55617L9.05612 4.60378L9.09923 4.6416L9.1402 4.6816L9.18492 4.72159L9.22883 4.76784L9.26203 4.7956L9.29309 4.8296L9.34317 4.88347L9.38654 4.93027L9.416 4.9651L9.44706 5.00047L9.49338 5.05352L9.54185 5.11365L9.58281 5.16371L9.60611 5.20071L9.63583 5.24451L9.67278 5.2924L9.7025 5.33321L9.73115 5.37402L9.75927 5.41538L9.79274 5.46544L9.82139 5.5125L9.8479 5.5525L9.87146 5.58787L9.89556 5.6265L9.91912 5.66487L9.94108 5.70812L9.9609 5.7473L9.9858 5.79437L10.0078 5.83056L10.0246 5.86511L10.0442 5.90755L10.0616 5.9383L10.0784 5.97367L10.105 6.0308L10.1315 6.09311L10.1465 6.12548L10.1609 6.16004L10.1754 6.19404L10.1882 6.2286L10.2035 6.27186L10.2163 6.30641L10.2345 6.34477L10.2466 6.37633L10.2565 6.40789L10.2702 6.45034L10.2793 6.48054L10.2921 6.52189L10.3042 6.56678L10.3178 6.61195L10.3336 6.65902L10.3489 6.72078L10.3625 6.77138L10.3807 6.85464L10.3907 6.89762L10.4011 6.94551L10.4131 7.01026L10.4164 7.0225L10.4247 7.07338L10.4359 7.13351L10.4437 7.19881L10.452 7.26356L10.4619 7.346L10.4702 7.42136L10.4761 7.5106L10.4814 7.59005L10.4876 7.69398L10.4913 7.81097L11.2697 7.02005L11.2711 7.00563L11.2665 6.97163L11.2598 6.92945L11.2523 6.88538L11.2462 6.85083L11.2371 6.79777L11.2255 6.75152L11.218 6.70826L11.1998 6.63453L11.1907 6.59508L11.1787 6.54747L11.1642 6.4936L11.1522 6.4487L11.1401 6.40272L11.1286 6.36572L11.1166 6.32246L11.1013 6.27403L11.0855 6.22316L11.0643 6.15922L11.0475 6.10861L11.0317 6.0591L11.0127 6.01148L10.9969 5.97067L10.9771 5.91136L10.9575 5.86593L10.9398 5.82593L10.9195 5.77669L10.8997 5.73125L10.8756 5.6733L10.8558 5.62786L10.8338 5.58651L10.8097 5.53481L10.7899 5.49564L10.765 5.44313L10.7436 5.40395L10.7216 5.36232L10.6967 5.3177L10.6678 5.26846L10.6413 5.2184L10.618 5.17894L10.5936 5.13596L10.5701 5.09896L10.546 5.05515L10.524 5.02033L10.4967 4.98115L10.4777 4.9504L10.4579 4.92429L10.4284 4.87803L10.3982 4.83477L10.3716 4.79723L10.3473 4.7624L10.3186 4.72322L10.2889 4.68405L10.2586 4.6446L10.2412 4.61848L10.2139 4.58692L10.1965 4.56542L10.1671 4.52842L10.1398 4.49523L10.1095 4.45904L10.0632 4.40354L10.0246 4.35892L9.98901 4.32273L9.95474 4.28437L9.91698 4.24574L9.86156 4.18806L9.81389 4.14262L9.77453 4.10344L9.7266 4.05556L9.68349 4.01339L9.64547 3.98101L9.59567 3.93313L9.5539 3.89857L9.51909 3.8662L9.47276 3.83001L9.4334 3.79764L9.38788 3.75982L9.34397 3.7269L9.2955 3.69153L9.25239 3.66051L9.20313 3.62133L9.156 3.58732L9.11825 3.55903L9.07862 3.53291L9.03711 3.5057L8.98999 3.47578L8.94018 3.4434L8.89466 3.41265L8.8553 3.38871L8.80818 3.36259L8.7664 3.33783L8.71955 3.31253L8.67028 3.28342L8.62797 3.26084L8.5787 3.23472L8.53077 3.21078L8.48847 3.18928L8.42929 3.16099L8.37627 3.13541L8.32165 3.10929L8.25417 3.07937L8.20357 3.05678L8.14519 3.03393L8.09512 3.0138L8.0488 2.99693L7.99873 2.97843L7.93152 2.95231L7.88145 2.93598L7.82468 2.91612L7.77836 2.90225L7.74944 2.89681L7.7481 0.955574L6.9001 1.8126L6.90063 2.71425L6.83262 2.70336L6.74238 2.69275L6.67036 2.68486L6.54906 2.67561L6.43633 2.6718L6.36966 2.66963L6.20739 2.67126L6.10136 2.67262L5.97765 2.67724L5.89197 2.68187L5.86948 2.68731L5.86921 2.68758L5.79584 2.69357L5.72007 2.69955L5.66705 2.71044L5.64268 2.72105L5.64134 0.953125Z" fill="white" stroke="white" stroke-width="0.5"/>
</svg>
