<svg width="22" height="22" viewBox="0 0 22 22" fill="none" xmlns="http://www.w3.org/2000/svg">
<path d="M15.9163 21.1555L15.903 21.1533C15.7917 21.1347 15.6785 21.1171 15.5643 21.0994C15.3094 21.0598 15.0496 21.0194 14.7952 20.9654L14.7905 20.9644L14.7905 20.9643C13.4175 20.6265 12.1017 20.0902 10.885 19.3725C8.97594 18.3163 7.24584 16.9676 5.75819 15.3758L5.75766 15.3752C3.95091 13.4215 2.44341 11.2641 1.49142 8.75076C1.12019 7.83985 0.906559 6.87295 0.85959 5.89103C0.823136 5.39806 0.890867 4.90295 1.05841 4.43764C1.22619 3.9717 1.4903 3.54603 1.83365 3.18813L1.83482 3.18691L1.83483 3.18691C1.96278 3.05653 2.09041 2.92433 2.21852 2.79163C2.64891 2.34583 3.08474 1.89439 3.55626 1.48737L3.55676 1.48694C4.04471 1.06946 4.56699 0.850359 5.09611 0.855458C5.62579 0.860562 6.14049 1.09014 6.61293 1.52828L6.61331 1.52863C7.57035 2.42233 8.49466 3.36109 9.38353 4.3153L15.9163 21.1555ZM15.9163 21.1555L15.9297 21.1554M15.9163 21.1555L15.9297 21.1554M15.9297 21.1554L16.7203 21.1447L16.7449 21.1444L16.7681 21.1362C16.8047 21.1233 16.842 21.1122 16.8797 21.103L15.9297 21.1554ZM7.8838 8.62408L7.88371 8.62398C7.85837 8.64771 7.83264 8.66966 7.80557 8.69276L7.80415 8.69397C7.80103 8.69663 7.79788 8.69932 7.79467 8.70206C9.09293 10.9952 11.0011 12.888 13.3097 14.1725L14.4157 13.0593C14.722 12.7005 15.1053 12.4149 15.5374 12.2236L15.5385 12.2231C15.8901 12.0709 16.2789 12.0253 16.6563 12.0921C17.0336 12.1589 17.3828 12.3351 17.6602 12.5986C17.6602 12.5986 17.6603 12.5987 17.6604 12.5987L7.8838 8.62408ZM7.8838 8.62408L7.88837 8.61941M7.8838 8.62408L7.88837 8.61941M7.88837 8.61941C8.04797 8.45629 8.21182 8.29396 8.37658 8.13072C8.71869 7.79179 9.06474 7.44894 9.38488 7.08698C9.73532 6.71024 9.93012 6.21559 9.93012 5.70186C9.93012 5.18749 9.73483 4.69224 9.38356 4.31533L7.88837 8.61941ZM15.5097 13.8944C15.3362 14.0661 15.1634 14.2385 14.9907 14.4108C14.6885 14.7124 14.3866 15.0137 14.0813 15.3107C13.943 15.4688 13.7538 15.5742 13.546 15.6087C13.3383 15.6432 13.1249 15.6049 12.9424 15.5001C12.6503 15.3534 12.3609 15.2067 12.0795 15.0413C10.8404 14.2871 9.719 13.3561 8.75124 12.278C7.85421 11.3636 7.11049 10.3118 6.54845 9.16266C6.26439 8.53851 6.32603 8.23444 6.81643 7.75967C6.85815 7.71927 6.90013 7.67867 6.94231 7.63786L15.5097 13.8944ZM15.5097 13.8944C15.5196 13.8845 15.5296 13.8746 15.5395 13.8646C15.5987 13.8054 15.6571 13.7469 15.7214 13.6944C15.7987 13.6169 15.8912 13.5559 15.9931 13.5153C16.095 13.4747 16.2041 13.4553 16.3139 13.4583C16.4236 13.4613 16.5315 13.4867 16.631 13.5328L15.5097 13.8944ZM19.2676 17.6055L19.2669 17.6062L18.0072 19.1036L17.8993 18.9994C17.8993 18.9995 17.8992 18.9995 17.8991 18.9996C17.6852 19.2213 17.4256 19.3944 17.1381 19.5071C16.8947 19.6026 16.6361 19.6528 16.3752 19.6557V19.6495L16.2332 19.642C15.5296 19.6045 14.8361 19.4592 14.177 19.2113L14.1766 19.2111C11.2402 18.1157 8.62082 16.3158 6.55103 13.9712L6.55105 13.9712L6.54916 13.9691C5.34623 12.6567 4.32979 11.1864 3.52823 9.59915L3.52824 9.59915L3.52747 9.59767C3.06264 8.70208 2.71582 7.75057 2.4956 6.76668L2.49588 6.76662L2.49331 6.75776C2.3166 6.14702 2.32384 5.49816 2.51405 4.89156C2.63509 4.61419 2.80539 4.36075 3.01682 4.14341L3.01686 4.14345L3.01976 4.1403C3.34321 3.78823 3.67325 3.46714 4.0196 3.13017C4.16055 2.99304 4.30419 2.85329 4.4512 2.70775C4.68937 2.47194 4.89118 2.37856 5.07281 2.37906C5.25476 2.37957 5.45683 2.47439 5.69528 2.70777L8.04658 5.05876C8.10833 5.12289 8.16642 5.18333 8.22159 5.24822L8.22661 5.25413L8.23221 5.25948C8.29331 5.3179 8.3416 5.3882 8.37411 5.46595C8.40662 5.5437 8.42266 5.62726 8.42125 5.71142C8.41983 5.79557 8.401 5.87856 8.36589 5.95519C8.33079 6.03183 8.28016 6.10048 8.21713 6.15684L8.21678 6.15646L8.20821 6.16551C7.76681 6.63155 7.29173 7.09114 6.83771 7.53035C6.79564 7.57105 6.75376 7.61157 6.7121 7.6519C6.46098 7.89502 6.29495 8.1167 6.24474 8.37671C6.19448 8.63701 6.26624 8.90469 6.41193 9.22479L6.41187 9.22481L6.41371 9.22856C6.98233 10.3911 7.7346 11.4554 8.64183 12.3807C9.61889 13.4687 10.7508 14.4082 12.0016 15.1695L12.0015 15.1695L12.0035 15.1707C12.2885 15.3382 12.5808 15.4864 12.8715 15.6323C13.0832 15.7527 13.3302 15.7966 13.5706 15.7567C13.8104 15.7168 14.0292 15.5959 14.1901 15.4142C14.4945 15.1179 14.7964 14.8166 15.0978 14.5159C15.2703 14.3438 15.4427 14.1718 15.6152 14.001L15.6155 14.0007C15.626 13.9902 15.6363 13.9799 15.6464 13.9699C15.7059 13.9104 15.7583 13.8579 15.8163 13.8105L15.8222 13.8057L15.8276 13.8003C15.8904 13.7373 15.9657 13.6877 16.0486 13.6547C16.1315 13.6216 16.2204 13.6059 16.3098 13.6083C16.3991 13.6107 16.487 13.6314 16.568 13.6689C16.649 13.7064 16.7213 13.76 16.7806 13.8263L16.7803 13.8266L16.7881 13.8341C17.1515 14.1862 17.509 14.5435 17.8679 14.9024C18.0028 15.0373 18.138 15.1724 18.2738 15.3076C18.3788 15.4129 18.484 15.517 18.5887 15.6208C18.8663 15.8959 19.1414 16.1684 19.4061 16.4531L19.4058 16.4534L19.4142 16.4612C19.4801 16.522 19.533 16.5954 19.5697 16.6769C19.6065 16.7584 19.6263 16.8465 19.6282 16.9358C19.63 17.0251 19.6138 17.1138 19.5804 17.1967C19.5471 17.2797 19.4972 17.3552 19.4339 17.4186L19.4279 17.4246L19.4226 17.4313C19.3743 17.4922 19.3225 17.5503 19.2676 17.6055Z" fill="#00B15D" stroke="#00B15D" stroke-width="0.3"/>
</svg>
