<svg width="18" height="22" viewBox="0 0 18 22" fill="none" xmlns="http://www.w3.org/2000/svg">
<path d="M9.29883 0C3.26808 0.000916667 0.0625 3.86467 0.0625 8.07767C0.0625 10.0311 1.15425 12.4685 2.90233 13.2413C3.401 13.4658 3.335 13.1918 3.764 11.5509C3.79792 11.4143 3.7805 11.2961 3.6705 11.1687C1.17167 8.27842 3.18283 2.33658 8.94225 2.33658C17.2775 2.33658 15.7201 13.8701 10.3924 13.8701C9.01925 13.8701 7.99625 12.7921 8.31983 11.4583C8.71217 9.86975 9.48033 8.162 9.48033 7.01708C9.48033 4.13142 5.18117 4.5595 5.18117 8.38292C5.18117 9.5645 5.59917 10.362 5.59917 10.362C5.59917 10.362 4.21592 15.95 3.95925 16.9941C3.52475 18.7614 4.01792 21.6223 4.061 21.8689C4.08758 22.0046 4.23975 22.0477 4.325 21.9358C4.46158 21.7571 6.13358 19.3719 6.602 17.6477C6.7725 17.0198 7.47192 14.4714 7.47192 14.4714C7.933 15.3038 9.26217 16.0004 10.6784 16.0004C14.8914 16.0004 17.9366 12.2971 17.9366 7.70183C17.9219 3.29633 14.1517 0 9.29883 0V0Z" fill="white"/>
</svg>
