<svg width="25" height="17" viewBox="0 0 25 17" fill="none" xmlns="http://www.w3.org/2000/svg">
<path d="M23.7236 2.64186C23.4535 1.63779 22.6619 0.846287 21.6579 0.57592C19.8239 0.0740967 12.4875 0.0740967 12.4875 0.0740967C12.4875 0.0740967 5.15141 0.0740967 3.31736 0.556894C2.33273 0.826975 1.52178 1.63793 1.2517 2.64186C0.769043 4.47578 0.769043 8.27908 0.769043 8.27908C0.769043 8.27908 0.769043 12.1016 1.2517 13.9163C1.52206 14.9202 2.31342 15.7117 3.3175 15.9821C5.17073 16.4841 12.4878 16.4841 12.4878 16.4841C12.4878 16.4841 19.8239 16.4841 21.6579 16.0013C22.662 15.731 23.4535 14.9395 23.7239 13.9356C24.2064 12.1016 24.2064 8.29839 24.2064 8.29839C24.2064 8.29839 24.2257 4.47578 23.7236 2.64186ZM10.1518 11.7927V4.76546L16.2523 8.27908L10.1518 11.7927Z" fill="white"/>
</svg>
